<?xml version="1.0" standalone="no"?>
<!DOCTYPE svg PUBLIC "-//W3C//DTD SVG 20010904//EN"
 "http://www.w3.org/TR/2001/REC-SVG-20010904/DTD/svg10.dtd">
<svg version="1.0" xmlns="http://www.w3.org/2000/svg"
 width="261.000000pt" height="261.000000pt" viewBox="0 0 261.000000 261.000000"
 preserveAspectRatio="xMidYMid meet">
<metadata>
Created by potrace 1.11, written by Peter Selinger 2001-2013
</metadata>
<g transform="translate(0.000000,261.000000) scale(0.100000,-0.100000)"
fill="#000000" stroke="none">
<path d="M1080 2590 c-102 -18 -247 -62 -306 -93 -27 -14 18 -16 526 -15 l555
0 -61 29 c-57 27 -210 72 -293 85 -91 14 -318 11 -421 -6z"/>
<path d="M570 2362 c-35 -4 -103 -48 -152 -99 l-27 -28 157 0 157 0 89 63 c49
34 83 62 75 62 -186 4 -270 4 -299 2z"/>
<path d="M1573 2362 c-21 -3 -23 -9 -23 -65 l0 -62 329 0 c217 0 327 3 324 10
-2 5 -33 34 -69 64 l-64 53 -238 2 c-130 0 -247 0 -259 -2z"/>
<path d="M270 2098 c-9 -10 -31 -39 -49 -63 l-32 -45 28 -1 c38 -1 265 -1 280
0 10 1 93 111 93 123 0 2 -68 4 -152 4 -133 0 -153 -2 -168 -18z"/>
<path d="M1550 2053 c0 -53 3 -63 18 -64 113 -5 836 1 835 7 -5 17 -64 104
-76 111 -7 4 -184 8 -394 8 l-383 0 0 -62z"/>
<path d="M104 1817 c-13 -29 -24 -58 -24 -64 0 -10 39 -13 164 -13 l165 0 16
53 c9 28 18 57 21 63 3 7 -47 11 -157 12 l-161 1 -24 -52z"/>
<path d="M1050 1556 l0 -311 248 0 247 0 3 -308 c2 -287 1 -307 -15 -308 -10
0 -314 -1 -675 -1 -362 0 -658 -3 -658 -7 0 -4 17 -32 38 -62 l38 -54 329 -2
c182 -1 356 -3 388 -3 l57 0 0 -60 0 -60 -332 0 -333 -1 26 -22 c15 -12 48
-40 74 -62 l48 -40 251 -1 c138 -1 254 -2 259 -3 4 0 7 -27 7 -60 l0 -58 -141
1 c-77 0 -143 -2 -145 -5 -9 -14 172 -76 286 -98 260 -50 555 -18 775 85 32
14 28 16 -50 16 -41 1 -47 3 -31 12 10 6 48 33 84 60 l66 50 87 1 c86 1 88 2
142 43 30 23 62 51 72 62 18 20 17 20 -78 20 -54 0 -97 2 -97 5 0 3 17 30 37
60 l37 55 101 1 c55 1 107 1 115 0 14 0 62 57 88 105 11 21 10 21 -109 21 -65
0 -121 2 -123 4 -3 2 3 30 11 62 l16 57 143 0 143 0 20 44 c39 89 51 82 -124
81 l-154 -1 3 61 3 60 144 2 c79 1 156 2 170 2 29 1 34 13 44 88 l5 38 -185
-1 c-206 -2 -188 -9 -200 76 l-7 45 197 0 c230 0 218 -7 206 118 -1 4 -101 7
-224 7 l-222 0 -28 57 c-15 31 -25 58 -22 61 2 2 112 5 244 5 l240 0 -3 26
c-2 14 -7 43 -11 64 l-7 37 -282 1 -281 0 -54 60 -53 59 316 0 c174 0 316 2
316 4 0 3 -12 31 -26 64 l-25 59 -715 0 -714 0 0 -311z"/>
<path d="M36 1611 c-3 -4 -8 -33 -12 -64 l-6 -55 179 0 180 1 2 55 c1 31 4 59
7 64 3 4 -74 8 -170 8 -96 0 -177 -4 -180 -9z"/>
<path d="M0 1311 c0 -38 4 -60 12 -63 11 -4 372 -3 389 1 3 0 0 27 -6 59 l-12
57 -191 3 -192 2 0 -59z"/>
<path d="M27 1122 c-10 -2 -15 -7 -13 -10 2 -4 7 -28 11 -52 4 -25 10 -49 15
-53 6 -7 470 -17 470 -11 0 0 -14 29 -31 62 -29 59 -32 62 -67 63 -224 3 -371
3 -385 1z"/>
<path d="M84 869 c-2 -4 5 -33 17 -63 l20 -56 296 0 296 0 -61 63 -62 62 -251
0 c-138 0 -253 -3 -255 -6z"/>
</g>
</svg>
